<?xml version="1.0" encoding="UTF-8"?>
<svg width="16px" height="16px" viewBox="0 0 16 16" version="1.1" xmlns="http://www.w3.org/2000/svg" xmlns:xlink="http://www.w3.org/1999/xlink">
    <title></title>
    <g id="Desktop" stroke="none" stroke-width="1" fill="none" fill-rule="evenodd">
        <g id="01_Home" transform="translate(-1560.000000, -114.000000)" fill="#000000" fill-rule="nonzero">
            <g id="Group-7" transform="translate(1460.000000, 106.000000)">
                <path d="M108.00782,9.00097752 C107.580317,9.00097752 107.158034,9.08178479 106.740958,9.24340176 C106.323882,9.40501873 105.948519,9.61094694 105.614858,9.86119257 C105.281197,10.1114382 105.012709,10.3825336 104.809384,10.6744868 C104.60606,10.96644 104.504399,11.2427488 104.504399,11.5034213 L104.504399,14.0058651 C104.504399,14.4959295 104.626913,15.1215342 104.871945,15.8826979 C105.116977,16.6438617 105.50016,17.2329728 106.021505,17.6500489 C106.157055,17.7543179 106.258716,17.8872589 106.326491,18.0488759 C106.394266,18.2104928 106.417726,18.3799274 106.396872,18.5571848 C106.365591,18.7240152 106.300424,18.8778097 106.201369,19.0185728 C106.102313,19.159336 105.974585,19.2662101 105.818182,19.3391984 L101.423265,21.4193548 C101.360703,21.4402086 101.274683,21.4897357 101.1652,21.5679374 C101.055718,21.6461392 101.000978,21.7895069 101.000978,21.998045 L101.000978,23.0146628 L114.999022,22.9990225 L114.999022,22.0293255 C114.999022,21.7582261 114.933855,21.5887915 114.803519,21.5210166 C114.673183,21.4532418 114.602802,21.4193548 114.592375,21.4193548 L110.228739,19.3548387 C110.072335,19.2818504 109.942001,19.1749763 109.837732,19.0342131 C109.733463,18.8934499 109.670903,18.7344421 109.650049,18.5571848 C109.629195,18.3799274 109.652655,18.2104928 109.72043,18.0488759 C109.788205,17.8872589 109.889866,17.7543179 110.025415,17.6500489 C110.567614,17.2329728 110.950797,16.6412551 111.174976,15.8748778 C111.399154,15.1085006 111.511241,14.4855026 111.511241,14.0058651 L111.511241,11.5034213 C111.511241,11.2323219 111.406974,10.9507998 111.198436,10.6588465 C110.989898,10.3668933 110.721409,10.0984046 110.392962,9.85337243 C110.064514,9.60834025 109.689152,9.40501873 109.266862,9.24340176 C108.844573,9.08178479 108.424896,9.00097752 108.00782,9.00097752 Z M108.00782,8 C108.560446,8 109.105243,8.10426745 109.642229,8.31280547 C110.179214,8.5213435 110.658844,8.79243887 111.081134,9.12609971 C111.503423,9.45976055 111.847506,9.83512336 112.113392,10.2521994 C112.379278,10.6692755 112.512219,11.0863453 112.512219,11.5034213 L112.512219,14.0058651 C112.512219,14.3082452 112.480939,14.6575412 112.418377,15.0537634 C112.355816,15.4499857 112.251548,15.8540221 112.105572,16.2658847 C111.959595,16.6777473 111.7667,17.0739636 111.526882,17.4545455 C111.287063,17.8351274 110.995114,18.1609631 110.651026,18.4320626 L115.014663,20.512219 C115.014663,20.512219 115.178884,20.603453 115.507331,20.7859238 C115.835779,20.9683945 116,21.205603 116,21.4975562 L116,23.0146628 C116,23.2857622 115.903553,23.5177573 115.710655,23.7106549 C115.517757,23.9035526 115.285762,24 115.014663,24 L101.000978,24 C100.719451,24 100.482243,23.9035526 100.289345,23.7106549 C100.096447,23.5177573 100,23.2857622 100,23.0146628 L100,21.4975562 C100,21.2264568 100.166828,20.9944617 100.500489,20.801564 C100.83415,20.6086664 101.000978,20.512219 101.000978,20.512219 L105.395894,18.4320626 C105.04138,18.1505362 104.744218,17.811667 104.504399,17.4154448 C104.26458,17.0192225 104.069079,16.6151862 103.917889,16.2033236 C103.766698,15.791461 103.659824,15.3900313 103.597263,14.9990225 C103.534702,14.6080137 103.503421,14.2769645 103.503421,14.0058651 L103.503421,11.5034213 C103.503421,11.0863453 103.633756,10.6692755 103.894428,10.2521994 C104.155101,9.83512336 104.496577,9.45976055 104.918866,9.12609971 C105.341156,8.79243887 105.823393,8.5213435 106.365591,8.31280547 C106.90779,8.10426745 107.455194,8 108.00782,8 Z" id=""></path>
            </g>
        </g>
    </g>
</svg>