<?xml version="1.0" encoding="UTF-8"?>
<svg width="16px" height="16px" viewBox="0 0 16 16" version="1.1" xmlns="http://www.w3.org/2000/svg" xmlns:xlink="http://www.w3.org/1999/xlink">
    <title></title>
    <g id="Desktop" stroke="none" stroke-width="1" fill="none" fill-rule="evenodd">
        <g id="01_Home" transform="translate(-1606.000000, -114.000000)" fill="#000000" fill-rule="nonzero">
            <g id="Group-7" transform="translate(1460.000000, 106.000000)">
                <path d="M161.992178,22.7212476 C162.013036,22.9499687 161.992178,23.1371013 161.929604,23.2826511 C161.867029,23.4282009 161.799241,23.5425597 161.726238,23.625731 C161.653234,23.7089023 161.538516,23.7920724 161.38208,23.8752437 C161.225643,23.958415 161.017065,24 160.756338,24 L147.099518,24 C146.911795,24 146.747539,23.9714103 146.606746,23.91423 C146.465954,23.8570497 146.348628,23.7764788 146.254767,23.6725146 C146.150476,23.5581541 146.077473,23.4204037 146.035757,23.2592593 C145.99404,23.0981149 145.988826,22.9135813 146.020113,22.705653 L147.224667,14.8304094 C147.276812,14.3417779 147.506249,13.9155314 147.912983,13.5516569 C148.319717,13.1877825 148.77859,13.005848 149.289615,13.005848 L150.494169,13.005848 L150.494169,11.6803119 C150.494169,11.1708876 150.582815,10.6926598 150.760109,10.245614 C150.937403,9.79856827 151.182483,9.40870862 151.495356,9.07602339 C151.808228,8.74333817 152.178455,8.48083267 152.606048,8.28849903 C153.03364,8.09616538 153.502942,8 154.013967,8 C154.524993,8 154.994294,8.09616538 155.421887,8.28849903 C155.84948,8.48083267 156.217099,8.74333817 156.524757,9.07602339 C156.832415,9.40870862 157.072281,9.79856827 157.244361,10.245614 C157.416441,10.6926598 157.502479,11.1708876 157.502479,11.6803119 L157.502479,13.005848 L158.613171,13.005848 C159.124196,13.005848 159.583069,13.1877825 159.989804,13.5516569 C160.396538,13.9155314 160.625974,14.3521742 160.67812,14.8615984 L161.992178,22.7212476 Z M151.495356,11.6803119 L151.495356,13.005848 L156.501292,13.005848 L156.501292,11.6803119 C156.501292,10.9421665 156.271856,10.3105939 155.812976,9.78557505 C155.354096,9.26055618 154.754433,8.99805068 154.013967,8.99805068 C153.273502,8.99805068 152.668624,9.26055618 152.199316,9.78557505 C151.730007,10.3105939 151.495356,10.9421665 151.495356,11.6803119 Z M160.803268,22.9863548 C160.876272,22.9863548 160.928417,22.9707604 160.959704,22.9395712 C160.990991,22.9083819 161.00142,22.8771931 160.990991,22.8460039 L159.692576,15.0019493 C159.661289,14.7212462 159.538749,14.4847313 159.324953,14.2923977 C159.111157,14.100064 158.873898,14.0038986 158.613171,14.0038986 L157.502479,14.0038986 L157.502479,15.1423002 C157.648486,15.2358679 157.768419,15.3580239 157.862281,15.5087719 C157.956143,15.6595199 158.003073,15.823261 158.003073,16 C158.003073,16.2807032 157.906605,16.517218 157.713667,16.7095517 C157.520729,16.9018853 157.283471,16.9980507 157.001886,16.9980507 C156.7203,16.9980507 156.483042,16.9018853 156.290104,16.7095517 C156.097166,16.517218 156.000698,16.2807032 156.000698,16 C156.000698,15.823261 156.047629,15.6595199 156.14149,15.5087719 C156.235352,15.3580239 156.355285,15.2358679 156.501292,15.1423002 L156.501292,14.0038986 L151.495356,14.0038986 L151.495356,15.1423002 C151.641363,15.2358679 151.761296,15.3580239 151.855158,15.5087719 C151.949019,15.6595199 151.995949,15.823261 151.995949,16 C151.995949,16.2807032 151.899482,16.517218 151.706544,16.7095517 C151.513606,16.9018853 151.276348,16.9980507 150.994762,16.9980507 C150.713177,16.9980507 150.475919,16.9018853 150.282981,16.7095517 C150.090043,16.517218 149.993575,16.2807032 149.993575,16 C149.993575,15.823261 150.040505,15.6595199 150.134367,15.5087719 C150.228229,15.3580239 150.348161,15.2358679 150.494169,15.1423002 L150.494169,14.0038986 L149.289615,14.0038986 C149.028888,14.0038986 148.79163,14.100064 148.577834,14.2923977 C148.364037,14.4847313 148.241498,14.7108499 148.21021,14.9707602 L147.005657,22.8304094 C146.995228,22.8927878 147.008264,22.9369719 147.044766,22.962963 C147.081268,22.988954 147.120376,23.0019493 147.162092,23.0019493 L160.803268,22.9863548 Z" id=""></path>
            </g>
        </g>
    </g>
</svg>