<?xml version="1.0" encoding="UTF-8"?>
<svg width="14px" height="15px" viewBox="0 0 14 15" version="1.1" xmlns="http://www.w3.org/2000/svg" xmlns:xlink="http://www.w3.org/1999/xlink">
    <title></title>
    <g id="Desktop" stroke="none" stroke-width="1" fill="none" fill-rule="evenodd">
        <g id="01_Home" transform="translate(-1652.000000, -9.000000)" fill="#000000" fill-rule="nonzero">
            <g id="Group-15">
                <path d="M1659,23.875 C1659.96615,23.875 1660.87533,23.6927083 1661.72754,23.328125 C1662.57975,22.9635417 1663.32259,22.4645182 1663.95605,21.8310547 C1664.58952,21.1975911 1665.08854,20.4547526 1665.45312,19.6025391 C1665.81771,18.7503255 1666,17.8411458 1666,16.875 C1666,15.9088542 1665.81771,14.9996745 1665.45312,14.1474609 C1665.08854,13.2952474 1664.58952,12.5524089 1663.95605,11.9189453 C1663.32259,11.2854818 1662.57975,10.7864583 1661.72754,10.421875 C1660.87533,10.0572917 1659.96615,9.875 1659,9.875 C1658.03385,9.875 1657.12467,10.0572917 1656.27246,10.421875 C1655.42025,10.7864583 1654.67741,11.2854818 1654.04395,11.9189453 C1653.41048,12.5524089 1652.91146,13.2952474 1652.54688,14.1474609 C1652.18229,14.9996745 1652,15.9088542 1652,16.875 C1652,17.8411458 1652.18229,18.7503255 1652.54688,19.6025391 C1652.91146,20.4547526 1653.41048,21.1975911 1654.04395,21.8310547 C1654.67741,22.4645182 1655.42025,22.9635417 1656.27246,23.328125 C1657.12467,23.6927083 1658.03385,23.875 1659,23.875 Z M1659,23.0136719 C1658.15234,23.0136719 1657.3571,22.851888 1656.61426,22.5283203 C1655.87142,22.2047526 1655.22428,21.764974 1654.67285,21.2089844 C1654.12142,20.6529948 1653.68392,20.0035807 1653.36035,19.2607422 C1653.03678,18.5179036 1652.875,17.7226562 1652.875,16.875 C1652.875,16.0273438 1653.03678,15.2320964 1653.36035,14.4892578 C1653.68392,13.7464193 1654.12142,13.0992839 1654.67285,12.5478516 C1655.22428,11.9964193 1655.87142,11.5589193 1656.61426,11.2353516 C1657.3571,10.9117839 1658.15234,10.75 1659,10.75 C1659.84766,10.75 1660.6429,10.9117839 1661.38574,11.2353516 C1662.12858,11.5589193 1662.77572,11.9964193 1663.32715,12.5478516 C1663.87858,13.0992839 1664.31608,13.7464193 1664.63965,14.4892578 C1664.96322,15.2320964 1665.125,16.0273438 1665.125,16.875 C1665.125,17.7226562 1664.96322,18.5179036 1664.63965,19.2607422 C1664.31608,20.0035807 1663.87858,20.6529948 1663.32715,21.2089844 C1662.77572,21.764974 1662.12858,22.2047526 1661.38574,22.5283203 C1660.6429,22.851888 1659.84766,23.0136719 1659,23.0136719 Z M1661.16699,19.4726562 C1661.29004,19.4726562 1661.39258,19.4316406 1661.47461,19.3496094 C1661.55664,19.2675781 1661.59766,19.1650391 1661.59766,19.0419922 C1661.59766,18.9189453 1661.55664,18.8164062 1661.47461,18.734375 L1659.61523,16.875 L1661.47461,15.015625 C1661.55664,14.9335938 1661.59766,14.8310547 1661.59766,14.7080078 C1661.59766,14.5849609 1661.55664,14.4824219 1661.47461,14.4003906 C1661.39258,14.3183594 1661.29004,14.2773438 1661.16699,14.2773438 C1661.04395,14.2773438 1660.94141,14.3183594 1660.85938,14.4003906 L1659,16.2597656 L1657.14062,14.4003906 C1657.05859,14.3183594 1656.95605,14.2773438 1656.83301,14.2773438 C1656.70996,14.2773438 1656.60742,14.3183594 1656.52539,14.4003906 C1656.44336,14.4824219 1656.40234,14.5849609 1656.40234,14.7080078 C1656.40234,14.8310547 1656.44336,14.9335938 1656.52539,15.015625 L1658.38477,16.875 L1656.52539,18.734375 C1656.44336,18.8164062 1656.40234,18.9189453 1656.40234,19.0419922 C1656.40234,19.1650391 1656.44336,19.2675781 1656.52539,19.3496094 C1656.60742,19.4316406 1656.70996,19.4726562 1656.83301,19.4726562 C1656.95605,19.4726562 1657.05859,19.4316406 1657.14062,19.3496094 L1659,17.4902344 L1660.85938,19.3496094 C1660.94141,19.4316406 1661.04395,19.4726562 1661.16699,19.4726562 Z" id=""></path>
            </g>
        </g>
    </g>
</svg>