<?xml version="1.0" encoding="UTF-8"?>
<svg width="16px" height="16px" viewBox="0 0 16 16" version="1.1" xmlns="http://www.w3.org/2000/svg" xmlns:xlink="http://www.w3.org/1999/xlink">
    <title></title>
    <g id="Desktop" stroke="none" stroke-width="1" fill="none" fill-rule="evenodd">
        <g id="01_Home" transform="translate(-1460.000000, -116.000000)" fill="#000000" fill-rule="nonzero">
            <g id="Group-7" transform="translate(1460.000000, 106.000000)">
                <path d="M15.8597858,25.140625 C15.9532624,25.2343755 16,25.3515618 16,25.4921875 C16,25.6328132 15.9532624,25.7499995 15.8597858,25.84375 C15.7559229,25.9479172 15.6364823,26 15.5014606,26 C15.3664388,26 15.2469982,25.9479172 15.1431353,25.84375 L10.3135346,20.96875 C9.76306119,21.4479191 9.13989313,21.8229153 8.44401168,22.09375 C7.74813024,22.3645847 7.0107147,22.5 6.23174294,22.5 C5.36968086,22.5 4.55956238,22.3359391 3.80136319,22.0078125 C3.04316401,21.6796859 2.38104795,21.2343778 1.81499513,20.671875 C1.24894232,20.1093722 0.804935073,19.4479205 0.482960078,18.6875 C0.160985083,17.9270795 0,17.1145877 0,16.25 C0,15.3854123 0.160985083,14.5729205 0.482960078,13.8125 C0.804935073,13.0520795 1.24894232,12.3906278 1.81499513,11.828125 C2.38104795,11.2656222 3.04316401,10.8203141 3.80136319,10.4921875 C4.55956238,10.1640609 5.36968086,10 6.23174294,10 C7.08341873,10 7.88834415,10.1640609 8.64654333,10.4921875 C9.40474251,10.8203141 10.0668586,11.2656222 10.6329114,11.828125 C11.1989642,12.3906278 11.645568,13.0520795 11.9727361,13.8125 C12.2999043,14.5729205 12.4634859,15.3854123 12.4634859,16.25 C12.4634859,17.0104205 12.3336592,17.7317674 12.0740019,18.4140625 C11.8143447,19.0963576 11.4612161,19.7083306 11.0146056,20.25 L15.8597858,25.140625 Z M6.23174294,21.515625 C6.94839696,21.515625 7.62609223,21.3776055 8.26484907,21.1015625 C8.90360592,20.8255195 9.45926411,20.4479191 9.93184031,19.96875 C10.4044165,19.4895809 10.7783174,18.9322948 11.053554,18.296875 C11.3287907,17.6614552 11.466407,16.9791703 11.466407,16.25 C11.466407,15.5208297 11.3287907,14.8385448 11.053554,14.203125 C10.7783174,13.5677052 10.4044165,13.0104191 9.93184031,12.53125 C9.45926411,12.0520809 8.90360592,11.6744805 8.26484907,11.3984375 C7.62609223,11.1223945 6.94839696,10.984375 6.23174294,10.984375 C5.50470263,10.984375 4.82181429,11.1223945 4.18305745,11.3984375 C3.5443006,11.6744805 2.98864241,12.0520809 2.51606621,12.53125 C2.04349001,13.0104191 1.66958917,13.5677052 1.39435248,14.203125 C1.11911579,14.8385448 0.981499513,15.5208297 0.981499513,16.25 C0.981499513,16.9791703 1.11911579,17.6614552 1.39435248,18.296875 C1.66958917,18.9322948 2.04349001,19.4895809 2.51606621,19.96875 C2.98864241,20.4479191 3.5443006,20.8255195 4.18305745,21.1015625 C4.82181429,21.3776055 5.50470263,21.515625 6.23174294,21.515625 Z" id=""></path>
            </g>
        </g>
    </g>
</svg>